<?xml version="1.0" standalone="no"?><!DOCTYPE svg PUBLIC "-//W3C//DTD SVG 1.1//EN" "http://www.w3.org/Graphics/SVG/1.1/DTD/svg11.dtd"><svg t="1647674500969" class="icon" viewBox="0 0 1024 1024" version="1.1" xmlns="http://www.w3.org/2000/svg" p-id="4112" xmlns:xlink="http://www.w3.org/1999/xlink" width="200" height="200"><defs><style type="text/css">@font-face { font-family: feedback-iconfont; src: url("//at.alicdn.com/t/font_1031158_u69w8yhxdu.woff2?t=1630033759944") format("woff2"), url("//at.alicdn.com/t/font_1031158_u69w8yhxdu.woff?t=1630033759944") format("woff"), url("//at.alicdn.com/t/font_1031158_u69w8yhxdu.ttf?t=1630033759944") format("truetype"); }
</style></defs><path d="M512 512m-512 0a512 512 0 1 0 1024 0 512 512 0 1 0-1024 0Z" fill="#FBD971" p-id="4113"></path><path d="M292.571429 341.333333m-146.285715 0a146.285714 146.285714 0 1 0 292.571429 0 146.285714 146.285714 0 1 0-292.571429 0Z" fill="#FFFFFF" p-id="4114"></path><path d="M731.428571 341.333333m-146.285714 0a146.285714 146.285714 0 1 0 292.571429 0 146.285714 146.285714 0 1 0-292.571429 0Z" fill="#D0E8F9" p-id="4115"></path><path d="M731.428571 512c-94.110476 0-170.666667-76.580571-170.666666-170.666667s76.55619-170.666667 170.666666-170.666666 170.666667 76.580571 170.666667 170.666666-76.55619 170.666667-170.666667 170.666667z m0-292.571429c-67.218286 0-121.904762 54.686476-121.904761 121.904762s54.686476 121.904762 121.904761 121.904762 121.904762-54.686476 121.904762-121.904762-54.686476-121.904762-121.904762-121.904762z" fill="#556080" p-id="4116"></path><path d="M790.406095 699.830857a24.064 24.064 0 0 1-20.431238-11.873524c-56.807619-94.134857-137.362286-123.14819-137.362286-123.14819-47.640381-14.189714-85.820952 12.068571-106.057142 31.232a23.161905 23.161905 0 0 1-31.670858 0c-20.23619-19.18781-58.441143-45.421714-106.057142-31.232 0 0-77.945905 29.013333-134.753524 123.14819a24.064 24.064 0 0 1-20.431238 11.873524H182.125714c-21.016381 0-31.548952 25.404952-16.676571 40.277333l29.45219 29.452191a178.078476 178.078476 0 0 0 125.927619 52.150857 179.102476 179.102476 0 0 0 135.606858-62.707809c17.261714-20.065524 37.083429-36.742095 54.247619-34.816 17.16419-1.901714 36.985905 14.750476 54.247619 34.816a179.053714 179.053714 0 0 0 135.606857 62.707809h2.633143c47.225905 0 92.525714-18.773333 125.927619-52.150857l29.45219-29.452191c14.872381-14.872381 4.33981-40.277333-16.676571-40.277333h-51.468191z" fill="#414141" p-id="4117"></path><path d="M292.571429 341.333333m-73.142858 0a73.142857 73.142857 0 1 0 146.285715 0 73.142857 73.142857 0 1 0-146.285715 0Z" fill="#AF8066" p-id="4118"></path><path d="M877.714286 414.47619h-48.761905c0 98.864762 76.068571 208.676571 180.077714 218.453334 3.82781-15.798857 6.875429-31.865905 9.216-48.201143C938.691048 580.559238 877.714286 491.544381 877.714286 414.47619z" fill="#556080" p-id="4119"></path></svg>