<?xml version="1.0" standalone="no"?><!DOCTYPE svg PUBLIC "-//W3C//DTD SVG 1.1//EN" "http://www.w3.org/Graphics/SVG/1.1/DTD/svg11.dtd"><svg t="1647674895387" class="icon" viewBox="0 0 1024 1024" version="1.1" xmlns="http://www.w3.org/2000/svg" p-id="4259" xmlns:xlink="http://www.w3.org/1999/xlink" width="200" height="200"><defs><style type="text/css">@font-face { font-family: feedback-iconfont; src: url("//at.alicdn.com/t/font_1031158_u69w8yhxdu.woff2?t=1630033759944") format("woff2"), url("//at.alicdn.com/t/font_1031158_u69w8yhxdu.woff?t=1630033759944") format("woff"), url("//at.alicdn.com/t/font_1031158_u69w8yhxdu.ttf?t=1630033759944") format("truetype"); }
</style></defs><path d="M693.99931 282.226975c-191.324457-29.441325-264.918938 70.64505-264.918937 70.64505-136.874784-13.245947-194.273888-52.983788-194.273888-52.983788a213.877889 213.877889 0 0 1-88.306313 61.355226V882.7099c0 38.854778 31.790273 70.64505 70.64505 70.64505h600.482926c38.854778 0 70.64505-31.790273 70.64505-70.64505v-565.1604c-142.755985 83.890997-194.273888-35.322525-194.273888-35.322525z" fill="#FFDB2B" p-id="4260"></path><path d="M686.051742 470.972887m-79.475681 0a79.475681 79.475681 0 1 0 158.951362 0 79.475681 79.475681 0 1 0-158.951362 0Z" fill="#FFFFFF" p-id="4261"></path><path d="M344.730183 485.684719m-79.475681 0a79.475681 79.475681 0 1 0 158.951362 0 79.475681 79.475681 0 1 0-158.951362 0Z" fill="#FFFFFF" p-id="4262"></path><path d="M741.596413 1024H328.517144a23.047948 23.047948 0 0 1-23.047948-23.047948V953.35495h459.192825v47.597102a23.08327 23.08327 0 0 1-23.065608 23.047948z" fill="#FEC722" p-id="4263"></path><path d="M551.225664 888.44981l-3.744188-0.017661a274.544326 274.544326 0 0 1-194.326871-83.573094 17.643601 17.643601 0 1 1 25.32625-24.6198 239.469058 239.469058 0 0 0 169.477475 72.88803c63.810141 1.25395 125.183029-23.436495 171.314247-68.402069a17.678924 17.678924 0 0 1 24.655122 25.32625 274.685616 274.685616 0 0 1-192.702035 78.398344z" fill="#E57E25" p-id="4264"></path><path d="M344.341635 834.070783a17.661263 17.661263 0 0 1-16.795861-23.189238 68.949569 68.949569 0 0 1 34.669059-40.267678c16.51328-8.3891 35.322525-9.766678 52.966126-3.938462a17.661263 17.661263 0 1 1-11.073612 33.556399 33.768334 33.768334 0 0 0-25.997378 1.907416c-8.124181 4.097413-14.164333 11.126595-17.007796 19.780614a17.661263 17.661263 0 0 1-16.760538 12.150949zM745.234633 857.136392a17.661263 17.661263 0 0 1-16.795861-23.189238 34.121559 34.121559 0 0 0-21.705692-43.040497 17.661263 17.661263 0 1 1 11.038289-33.57406c17.62594 5.810555 31.931563 18.120455 40.267679 34.669059s9.749017 35.357848 3.956123 52.966126a17.608279 17.608279 0 0 1-16.760538 12.16861z" fill="#E57E25" p-id="4265"></path><path d="M694.882373 459.192825c-4.591928 0-9.201518-1.942739-12.539496-5.121766-3.196689-3.35564-5.121766-7.947568-5.121766-12.539496s1.925078-9.201518 5.121766-12.539497c6.71128-6.534667 18.367713-6.534667 25.078993 0 3.179027 3.337979 5.121766 7.947568 5.121766 12.539497s-1.942739 9.183857-5.121766 12.539496c-3.373301 3.179027-7.788617 5.121766-12.539497 5.121766zM376.979648 512.176613c-4.786202 0-9.201518-1.942739-12.539496-5.121767-3.196689-3.35564-5.121766-7.947568-5.121766-12.539496 0-4.786202 1.766126-9.201518 5.121766-12.539496 6.71128-6.534667 18.544326-6.534667 25.078993 0a17.661263 17.661263 0 0 1-0.176613 25.078992 17.219731 17.219731 0 0 1-12.362884 5.121767z" fill="#556080" p-id="4266"></path><path d="M547.446154 759.487271c-33.874301 0-67.130459-11.691756-86.063332-31.401724l-1.925078-2.207658c-6.022491-7.400069-5.527975-18.756261 1.67782-25.008348 7.223456-6.252087 17.643601-6.146119 24.125285 0.847741l1.589513 1.836771c15.24167 15.912798 48.95702 24.248913 78.398344 19.127147 17.696585-2.984753 30.430355-10.3495 34.933978-20.204484 7.947568-17.325699 8.477406-32.743981 1.660158-47.155571-12.574819-26.527216-49.133632-46.484443-79.811245-54.484995-11.426837-3.020076-33.85664-1.448224-39.843808 1.094999a17.661263 17.661263 0 0 1-13.84643-32.496723c14.305623-6.093136 44.735978-7.435392 62.591514-2.772819 37.49486 9.802001 84.191238 34.245188 102.806209 73.541498 11.250224 23.736737 10.738048 50.369921-1.465884 77.003104-9.590066 20.928596-31.295757 35.234219-61.143291 40.303001a140.089134 140.089134 0 0 1-23.683753 1.978061z" fill="#E57E25" p-id="4267"></path><path d="M783.188686 671.127975m-17.661263 0a17.661263 17.661263 0 1 0 35.322525 0 17.661263 17.661263 0 1 0-35.322525 0Z" fill="#F0785A" p-id="4268"></path><path d="M712.543636 618.144188m-17.661263 0a17.661263 17.661263 0 1 0 35.322525 0 17.661263 17.661263 0 1 0-35.322525 0Z" fill="#F0785A" p-id="4269"></path><path d="M800.849948 600.482925m-17.661262 0a17.661263 17.661263 0 1 0 35.322525 0 17.661263 17.661263 0 1 0-35.322525 0Z" fill="#F0785A" p-id="4270"></path><path d="M242.630424 598.646154m-17.661262 0a17.661263 17.661263 0 1 0 35.322525 0 17.661263 17.661263 0 1 0-35.322525 0Z" fill="#F0785A" p-id="4271"></path><path d="M320.375302 640.521007m-17.661263 0a17.661263 17.661263 0 1 0 35.322525 0 17.661263 17.661263 0 1 0-35.322525 0Z" fill="#F0785A" p-id="4272"></path><path d="M235.689548 671.127975m-17.661262 0a17.661263 17.661263 0 1 0 35.322525 0 17.661263 17.661263 0 1 0-35.322525 0Z" fill="#F0785A" p-id="4273"></path><path d="M958.918248 317.5495c-10.949983-79.246085-45.672025-132.106244-78.963505-159.551846-16.177716-13.334253-25.414557-32.708658-30.64229-53.001448-14.111349-54.785236-66.017799-84.014626-119.990618-87.688169-34.386478-2.348948-64.392963 8.548051-98.708796 22.270852-10.791031 4.309348-23.878027-0.176613-27.97544-11.05595-21.087547-56.003863-141.890583-27.286651-233.994067 66.229734-4.415316 4.485961-12.080304 2.207658-12.963366-4.026768-3.055398-21.723353-4.644912-60.896033 20.398758-73.417868 0 0-77.833184-43.78227-144.575095 14.588203-20.345774 17.802553-33.644705 42.281062-40.42663 68.437392-1.624836 6.269748-3.284995 12.963367-4.75088 19.551018-4.097413 18.244084-27.498586 24.460849-39.525905 10.119903l-0.688789-0.883063c-11.267885-13.740462-32.86761-11.603449-39.896792 4.715557C68.755295 220.765781 10.667403 415.693136 146.500172 582.468437V361.243463a213.877889 213.877889 0 0 0 88.306313-61.355226s57.399103 39.737841 194.273888 52.983788c0 0 73.594481-100.086375 264.918937-70.64505 0 0 51.517903 119.213522 194.273888 35.322525v264.918937s94.540738-92.103484 70.64505-264.918937z" fill="#5E5F62" p-id="4274"></path></svg>