<?xml version="1.0" standalone="no"?><!DOCTYPE svg PUBLIC "-//W3C//DTD SVG 1.1//EN" "http://www.w3.org/Graphics/SVG/1.1/DTD/svg11.dtd"><svg t="1647684938495" class="icon" viewBox="0 0 1024 1024" version="1.1" xmlns="http://www.w3.org/2000/svg" p-id="4013" xmlns:xlink="http://www.w3.org/1999/xlink" width="200" height="200"><defs><style type="text/css">@font-face { font-family: feedback-iconfont; src: url("//at.alicdn.com/t/font_1031158_u69w8yhxdu.woff2?t=1630033759944") format("woff2"), url("//at.alicdn.com/t/font_1031158_u69w8yhxdu.woff?t=1630033759944") format("woff"), url("//at.alicdn.com/t/font_1031158_u69w8yhxdu.ttf?t=1630033759944") format("truetype"); }
</style></defs><path d="M743.123862 202.398897c-112.004414-65.129931-224.185379-64.229517-224.185379-64.229518s-209.672828-1.694897-341.910069 166.188138l566.095448-101.95862zM954.191448 520.598069c-16.436966-88.858483-48.498759-156.866207-87.975724-209.231448-1.871448 0.653241-3.689931 1.341793-5.949793 1.730207L108.438069 441.255724a7.538759 7.538759 0 0 1-3.937103-0.617931 574.658207 574.658207 0 0 0-20.833104 79.977931c-19.738483 106.637241 0.776828 218.14731 64.388414 305.840552 61.581241 84.868414 172.332138 164.987586 370.899862 162.215724 198.550069 2.754207 309.318621-77.34731 370.899862-162.215724 63.576276-87.710897 84.073931-199.220966 64.335448-305.858207z" fill="#FDC794" p-id="4014"></path><path d="M809.966345 693.000828c13.982897 58.420966-48.622345 176.975448-154.800552 202.398896-106.160552 25.423448-215.693241-51.906207-229.676138-110.327172s90.465103-2.206897 196.643311-27.630345c106.160552-25.441103 173.832828-122.862345 187.833379-64.441379z" fill="#802D40" p-id="4015"></path><path d="M638.976 524.641103a17.672828 17.672828 0 0 1-12.905931-29.73131l80.948965-86.457379a17.672828 17.672828 0 0 1 25.794207 24.13462l-80.948965 86.45738a17.602207 17.602207 0 0 1-12.888276 5.596689z" fill="#5E5F62" p-id="4016"></path><path d="M319.430633 639.450924a52.965517 79.448276 72.669 1 0 151.68261-47.333917 52.965517 79.448276 72.669 1 0-151.68261 47.333917Z" fill="#FFFFFF" p-id="4017"></path><path d="M650.94421 580.745599a52.965517 79.448276 72.669 1 0 151.682611-47.333917 52.965517 79.448276 72.669 1 0-151.682611 47.333917Z" fill="#FFFFFF" p-id="4018"></path><path d="M860.283586 313.096828L108.438069 441.255724c-21.927724 3.742897-68.360828-116.206345 28.389517-129.677241l653.223724-117.636414c42.001655-7.574069 68.113655 13.841655 80.719449 49.434483l7.503448 20.939034c7.697655 21.698207 7.68 44.402759-17.990621 48.781242z" fill="#24AE5F" p-id="4019"></path><path d="M829.793103 35.275034c-29.131034 0-52.965517 23.834483-52.965517 52.965518v105.931034c0 0.723862 0.176552 1.394759 0.211862 2.118621l13.011862-2.348138c37.464276-6.744276 62.216828 9.639724 76.093793 38.505931A52.753655 52.753655 0 0 0 882.758621 194.171586v-105.931034c0-29.131034-23.834483-52.965517-52.965518-52.965518z" fill="#4C8056" p-id="4020"></path><path d="M971.034483 229.481931h-97.103449c-2.983724 0-5.896828 0.317793-8.721655 0.882759 2.08331 4.078345 3.954759 8.421517 5.579035 12.994207l7.503448 20.939034c7.697655 21.698207 7.68 44.420414-18.008276 48.798897l-4.290207 0.723862c5.490759 2.471724 11.546483 3.919448 17.937655 3.919448H971.034483c24.275862 0 44.137931-19.862069 44.137931-44.137931s-19.862069-44.120276-44.137931-44.120276z" fill="#4C8056" p-id="4021"></path><path d="M79.430621 549.499586c-7.997793-7.574069-17.390345-12.129103-27.524414-12.129103-28.672 0-51.906207 34.974897-51.906207 78.106483 0 43.131586 23.234207 78.106483 51.888552 78.106482 12.129103 0 23.145931-6.532414 31.973517-17.019586a417.28 417.28 0 0 1-4.431448-127.064276zM1020.875034 481.933241c-9.939862-41.966345-40.606897-70.603034-68.484413-63.947034-8.66869 2.065655-15.854345 7.591724-21.627587 15.095172a570.968276 570.968276 0 0 1 23.446069 87.51669c2.736552 14.777379 4.608 29.643034 5.790897 44.526345 9.18069 5.014069 18.926345 7.097379 28.389517 4.837517 27.877517-6.656 42.425379-46.062345 32.485517-88.02869z" fill="#F9A671" p-id="4022"></path><path d="M471.057655 559.951448a17.531586 17.531586 0 0 1-8.368552-2.11862l-104.236137-56.214069c-8.580414-4.625655-11.793655-15.32469-7.150345-23.905104s15.307034-11.828966 23.905103-7.150345l104.236138 56.214069a17.619862 17.619862 0 0 1-8.386207 33.174069z" fill="#5E5F62" p-id="4023"></path><path d="M419.84 636.257103a17.566897 17.566897 0 0 1-12.552828-5.12 17.531586 17.531586 0 0 1-5.102344-12.535172c0-4.608 1.765517-9.198345 5.102344-12.535172 6.726621-6.532414 18.361379-6.532414 24.893794 0 3.354483 3.336828 5.314207 7.927172 5.314206 12.535172a17.302069 17.302069 0 0 1-5.314206 12.535172 17.072552 17.072552 0 0 1-12.340966 5.12z" fill="#7F5B53" p-id="4024"></path><path d="M755.288276 578.683586a17.549241 17.549241 0 0 1-12.552828-5.102345 17.831724 17.831724 0 0 1-5.102345-12.552827c0-4.590345 1.765517-9.18069 5.102345-12.535173 6.726621-6.514759 18.361379-6.514759 24.893793 0 3.354483 3.354483 5.314207 7.944828 5.314207 12.535173 0 4.608-1.942069 9.198345-5.12 12.552827-3.354483 3.177931-7.944828 5.102345-12.535172 5.102345z" fill="#7F5B53" p-id="4025"></path><path d="M655.165793 895.399724c39.565241-9.463172 73.039448-31.885241 98.798345-59.286069-9.728-28.901517-60.539586-41.613241-116.082759-28.318896-57.238069 13.700414-97.650759 49.787586-90.270896 80.578207l0.353103 1.377103c33.438897 10.769655 70.479448 14.441931 107.202207 5.649655z" fill="#E64C3C" p-id="4026"></path></svg>